{"title":"Stone-AC3-XviD-BRRip 2010 TBS","uid":6075420,"size":1248904481,"categoryP":"video","categoryS":"movies","magnet":"?xt=urn:btih:fa3f08e15b7a084f60183e9ef254ba46b1999fd4&amp;dn=Stone-AC3-XviD-BRRip+2010+TBS&amp;tr=udp%3A%2F%2Ftracker.openbittorrent.com%3A80&amp;tr=udp%3A%2F%2Fopen.demonii.com%3A1337&amp;tr=udp%3A%2F%2Ftracker.coppersurfer.tk%3A6969&amp;tr=udp%3A%2F%2Fexodus.desync.com%3A6969","seeders":0,"leechers":0,"uploader":"FatFreddy30","files":-1,"time":1293807541,"description":"A convicted arsonist looks to manipulate a parole officer into a plan to secure his parole by placing his beautiful wife in the lawman's path.\n &lt;a href=&quot;\nhttp://www.imdb.com/title/tt1423995/&quot; rel=&quot;nofollow&quot; target=&quot;_NEW&quot;&gt;\nhttp://www.imdb.com/title/tt1423995/&lt;/a&gt;\n\nSubs: Dutch, English (srt).\n\n\nEen veroordeelde brandstichter krijgt het aan de stok met zijn reclasseringsambtenaar. Om zijn vrijheid veilig te stellen speelt hij enkele psychologische spelletjes met deze man, maar wanneer de reclasseringsambtenaar zelf een affaire begint met de vrouw van de veroordeelde loopt het pas echt uit de hand.\n &lt;a href=&quot;\nhttp://www.moviemeter.nl/film/58410&quot; rel=&quot;nofollow&quot; target=&quot;_NEW&quot;&gt;\nhttp://www.moviemeter.nl/film/58410&lt;/a&gt;\n\nOndertitels: Engels, Nederlands (srt).\n\n\n\nGeneral\nComplete name                    : Stone-AC3-XviD-BRRip 2010 TBS\\Stone-AC3-XviD-BRRip 2010 TBS.avi\nFormat                           : AVI\nFormat/Info                      : Audio Video Interleave\nFile size                        : 1.16 GiB\nDuration                         : 1h 45mn\nOverall bit rate                 : 1 585 Kbps\nWriting application              : VirtualDubMod 1.5.4.1 (build 2178/release)\nWriting library                  : VirtualDubMod build 2178/release\nSource                           : Stone.LIMITED.720p.Bluray.x264-CBGB \n\nVideo\nID                               : 0\nFormat                           : MPEG-4 Visual\nFormat profile                   : Simple@L3\nFormat settings, BVOP            : No\nFormat settings, QPel            : No\nFormat settings, GMC             : No warppoints\nFormat settings, Matrix          : Default (H.263)\nCodec ID                         : XVID\nCodec ID/Hint                    : XviD\nDuration                         : 1h 45mn\nBit rate                         : 1 128 Kbps\nWidth                            : 720 pixels\nHeight                           : 304 pixels\nDisplay aspect ratio             : 2.35:1\nFrame rate                       : 23.976 fps\nResolution                       : 8 bits\nColorimetry                      : 4:2:0\nScan type                        : Progressive\nBits/(Pixel*Frame)               : 0.215\nStream size                      : 847 MiB (71%)\nWriting library                  : XviD 1.1.2 (UTC 2006-11-01)\n\nAudio\nID                               : 1\nFormat                           : AC-3\nFormat/Info                      : Audio Coding 3\nCodec ID                         : 2000\nDuration                         : 1h 45mn\nBit rate mode                    : Constant\nBit rate                         : 448 Kbps\nChannel(s)                       : 6 channels\nChannel positions                : Front: L C R, Surround: L R, LFE\nSampling rate                    : 48.0 KHz\nStream size                      : 336 MiB (28%)\nAlignment                        : Split accross interleaves\nInterleave, duration             : 42 ms (1.00 video frame)\nInterleave, preload duration     : 500 ms\n\nThanks to Simply ReleaseS Toppers for the Dutch subs...\n\nBlackbeard  TBS.","torrent":{"xt":"urn:btih:fa3f08e15b7a084f60183e9ef254ba46b1999fd4","amp;dn":"Stone-AC3-XviD-BRRip+2010+TBS","amp;tr":["udp%3A%2F%2Ftracker.openbittorrent.com%3A80","udp%3A%2F%2Fopen.demonii.com%3A1337","udp%3A%2F%2Ftracker.coppersurfer.tk%3A6969","udp%3A%2F%2Fexodus.desync.com%3A6969"],"infoHash":"fa3f08e15b7a084f60183e9ef254ba46b1999fd4","infoHashBuffer":{"type":"Buffer","data":[250,63,8,225,91,122,8,79,96,24,62,158,242,84,186,70,177,153,159,212]},"announce":[],"urlList":[]}}